<svg xmlns="http://www.w3.org/2000/svg" viewBox="0 0 591 242"><g fill="none" fill-rule="evenodd"><path fill="#000" d="M55.242 173.04c8.068 0 10.336 2.843 13.78 2.843 1.633 0 2.268-.733 2.63-1.925h1.541v18.065h-1.631c-2.267-12.013-8.524-17.24-16.23-17.24-6.075 0-11.968 2.934-11.968 10.361 0 7.795 6.89 11.28 16.23 15.04 10.698 4.219 19.674 8.62 19.674 20.908 0 12.562-9.158 20.908-22.213 20.908-9.611 0-13.147-4.036-17.228-4.036-1.994 0-2.991.733-3.717 2.292h-1.54v-22.833h1.632c2.085 14.033 9.518 22.833 20.853 22.833 9.158 0 13.69-4.859 13.69-11.92 0-8.712-6.437-11.829-16.32-15.956-9.066-3.76-18.223-8.711-18.223-20.357 0-12.473 9.429-18.983 19.04-18.983zm203.306 1.1l28.559 45.484h.182v-43.74h-9.43v-1.744h19.584v1.744h-8.16v65.106h-3.627l-39.439-63.914h-.272v61.347h9.7v1.742h-20.58v-1.742h8.886v-62.54h-8.886v-1.743h23.483zm-30.008 0v1.744h-9.066v62.54h9.066v1.742h-30.825v-1.742h8.975v-62.54h-8.975v-1.744h30.825zm-116.194 0c13.418 0 25.658 6.695 25.658 20.083 0 13.389-11.514 18.707-23.391 18.707-3.717 0-6.437-.55-8.342-1.192v26.685h10.064v1.742H84.512v-1.742h8.976v-62.54h-8.976v-1.743h27.834zm51.012-1.467l22.214 65.75h6.164v1.742h-27.29v-1.741h8.07l-6.89-20.267h-18.95l-6.892 20.267h9.974v1.74h-18.042v-1.74h5.894l22.576-65.751h3.172zm-7.071 17.973h-.182l-8.795 25.768h17.681l-8.704-25.768zm-44.484-14.762h-5.532v34.112c1.996.643 4.442 1.192 7.707 1.192 8.16 0 11.423-3.852 11.423-16.69v-2.293c0-12.654-4.442-16.321-13.598-16.321zm3.606-81.526c15.504 0 30.826 15.223 30.826 35.765 0 21-15.322 33.378-30.826 33.378-15.594 0-30.828-13.021-30.828-34.021 0-20.54 15.234-35.122 30.828-35.122zm246.318.275c8.159 0 11.694 3.027 15.049 3.027 1.813 0 2.72-1.1 3.173-2.384h1.452v22.1h-1.543c-3.445-15.223-10.154-21-18.042-21-8.794 0-17.317 5.87-17.317 31.73v2.567c0 26.134 8.612 30.81 16.137 30.81 7.98 0 12.423-3.117 12.423-10.545v-11.83h-10.065v-1.65h29.195v1.65h-6.62v10.18c0 3.485.363 10.179.637 11.647h-1.543c-.905-1.377-2.448-2.293-5.077-2.293-4.805 0-8.976 4.677-18.95 4.677-15.502 0-30.101-13.298-30.101-33.747 0-20.082 15.05-34.939 31.192-34.939zm-303.252 0c7.707 0 11.605 3.21 14.688 3.21 1.814 0 2.811-1.099 3.265-2.567h1.541V116h-1.632c-3.265-14.397-9.428-19.623-17.862-19.623-9.066 0-17.498 6.236-17.498 31.82v2.201c0 26.226 8.16 31.086 17.227 31.086 8.613 0 16.319-5.32 19.221-21.367h1.632v21.367h-1.543c-.361-1.283-1.36-2.017-3.082-2.017-3.264 0-7.615 3.852-16.228 3.852-16.683 0-31.19-13.205-31.19-33.564 0-20.358 15.05-35.122 31.46-35.122zm56.934 1.469c-10.246 0-16.865 8.343-16.865 31.82v3.026c0 24.392 7.254 30.81 16.865 30.81 9.791 0 16.864-6.418 16.864-30.81v-3.027c0-23.476-6.528-31.82-16.864-31.82zm328.188-.643v17.973h-1.632c-2.358-11.095-5.985-16.23-21.58-16.23h-4.896v29.436h3.446c8.705 0 10.88-3.852 12.24-11.646h1.542v23.842h-1.543c-1.813-7.704-3.808-10.455-12.239-10.455h-3.446v31.363h6.347c19.221 0 23.3-6.42 25.115-18.891h1.63v20.633H393.73v-1.742h8.976v-62.54h-8.976V95.46h49.867zm-204.713 0v1.744h-9.339v62.539h7.706c16.774 0 20.491-3.944 23.122-21h1.632v22.742h-54.22v-1.742h8.976v-62.54h-8.975V95.46h31.098zm-61.194 0v1.744h-9.339v62.539h7.706c16.775 0 20.492-3.944 23.122-21h1.632v22.742h-54.219v-1.742h8.975v-62.54h-8.975V95.46h31.098zm141.157 0v17.973h-1.633c-2.356-11.095-5.984-16.23-21.578-16.23h-4.897v29.436h3.446c8.704 0 10.88-3.852 12.24-11.646h1.542v23.842h-1.543c-1.812-7.704-3.806-10.455-12.239-10.455h-3.446v31.363h6.346c19.222 0 23.303-6.42 25.116-18.891h1.63v20.633H268.98v-1.742h8.975v-62.54h-8.975V95.46h49.867zM115.409 15.68c15.504 0 30.826 15.224 30.826 35.765 0 21-15.322 33.378-30.826 33.378-15.594 0-30.828-13.021-30.828-34.02 0-20.541 15.234-35.123 30.828-35.123zm391.569.001c8.069 0 10.336 2.843 13.781 2.843 1.632 0 2.267-.734 2.63-1.926h1.54v18.066h-1.631c-2.267-12.013-8.523-17.24-16.23-17.24-6.074 0-11.968 2.934-11.968 10.361 0 7.795 6.892 11.28 16.23 15.04 10.698 4.219 19.675 8.62 19.675 20.907 0 12.563-9.158 20.909-22.214 20.909-9.61 0-13.147-4.037-17.228-4.037-1.994 0-2.99.734-3.716 2.293h-1.54V60.064h1.631c2.086 14.03 9.52 22.833 20.853 22.833 9.158 0 13.69-4.859 13.69-11.92 0-8.712-6.436-11.829-16.32-15.956l-.633-.265c-8.854-3.729-17.59-8.717-17.59-20.092 0-12.473 9.429-18.983 19.04-18.983zm-448.503.275c7.707 0 11.605 3.21 14.688 3.21 1.814 0 2.811-1.1 3.265-2.568h1.541v20.724h-1.632C73.072 22.925 66.91 17.7 58.475 17.7c-9.066 0-17.498 6.236-17.498 31.82v2.202c0 26.225 8.16 31.085 17.227 31.085 8.613 0 16.319-5.32 19.221-21.366h1.632v21.366h-1.543c-.361-1.283-1.36-2.017-3.082-2.017-3.264 0-7.615 3.852-16.228 3.852-16.683 0-31.19-13.205-31.19-33.563 0-20.358 15.05-35.122 31.46-35.122zm111.69.825l28.56 45.484h.182v-43.74h-9.43V16.78h19.584v1.743h-8.16V83.63h-3.627l-39.44-63.915h-.271v61.348h9.7v1.742h-20.58v-1.742h8.885v-62.54h-8.885V16.78h23.483zm214.155 0l28.558 45.484h.182v-43.74h-9.429V16.78h19.584v1.743h-8.16V83.63h-3.627l-39.44-63.915h-.272v61.348h9.701v1.742h-20.582v-1.742h8.886v-62.54h-8.886V16.78h23.485zm-268.91.643c-10.247 0-16.866 8.344-16.866 31.82v3.026c0 24.392 7.254 30.811 16.865 30.811 9.791 0 16.864-6.419 16.864-30.81v-3.028c0-23.475-6.528-31.82-16.864-31.82zm213.136-.643v17.974h-1.63c-2.36-11.096-5.985-16.23-21.58-16.23h-4.896V47.96h3.445c8.705 0 10.88-3.852 12.24-11.646h1.541v23.842h-1.541c-1.813-7.704-3.808-10.455-12.24-10.455h-3.445v31.363h6.346c19.222 0 23.302-6.419 25.115-18.891h1.632v20.633H278.68v-1.742h8.976v-62.54h-8.976v-1.743h49.866zm-86.58 0c18.406 0 34.544 12.289 34.544 33.93 0 22.008-16.32 32.095-33.637 32.095h-28.832v-1.742h9.067v-62.54h-9.067v-1.742h27.924zm210.528-1.467l22.213 65.75h6.165v1.742H453.58v-1.741h8.071l-6.89-20.267h-18.95l-6.891 20.267h9.972v1.74H420.85v-1.74h5.894l22.577-65.751h3.173zm137.53 1.467v21h-1.633c-2.266-13.663-7.523-19.257-18.131-19.257h-2.268v62.54h9.52v1.742h-31.734v-1.742h9.52v-62.54h-2.538c-10.427 0-15.685 5.318-17.86 19.257h-1.633v-21h56.757zm-348.33 1.743h-5.893v62.54h6.799c11.606 0 19.947-6.052 19.947-29.895v-2.293c0-23.75-7.796-30.352-20.852-30.352zm203.727 14.763h-.181l-8.794 25.768h17.68l-8.705-25.768zM316.761 0c-1.36 4.219-6.71 10.363-11.062 13.114h-1.36c1.54-3.118 2.537-8.986 2.72-13.114h9.702z"/><path fill="#E02020" d="M0 16.884h13.507v222.865H0z"/></g></svg>