<svg xmlns="http://www.w3.org/2000/svg" viewBox="0 0 330 143">
  <path fill="#FFF" fill-rule="evenodd" d="M16.545 102.251c4.73 0 6.059 1.68 8.077 1.68.958 0 1.33-.434 1.542-1.138h.903v10.675h-.956c-1.329-7.099-4.996-10.187-9.513-10.187-3.56 0-7.014 1.734-7.014 6.123 0 4.605 4.038 6.665 9.512 8.887 6.271 2.493 11.532 5.093 11.532 12.354 0 7.423-5.368 12.355-13.02 12.355-5.633 0-7.706-2.385-10.098-2.385-1.169 0-1.753.434-2.178 1.355h-.904v-13.493h.958c1.222 8.292 5.578 13.493 12.222 13.493 5.368 0 8.024-2.871 8.024-7.044 0-5.148-3.773-6.99-9.566-9.429-5.313-2.221-10.68-5.147-10.68-12.029 0-7.37 5.526-11.217 11.16-11.217zm119.165.65l16.74 26.877h.106V103.93h-5.527v-1.03h11.479v1.03h-4.783v38.472H151.6l-23.116-37.767h-.16v36.25h5.686v1.03h-12.063v-1.03h5.208V103.93h-5.208v-1.03h13.764zm-17.588 0v1.03h-5.314v36.956h5.314v1.03h-18.068v-1.03h5.26V103.93h-5.26v-1.03h18.068zm-38.206-.867l13.02 38.853h3.614v1.029H80.554v-1.03h4.73l-4.039-11.975H70.138l-4.04 11.976h5.846v1.029H61.37v-1.03h3.455l13.233-38.852h1.859zm-29.9.867c7.865 0 15.04 3.956 15.04 11.867 0 7.912-6.75 11.054-13.711 11.054-2.179 0-3.773-.325-4.89-.704v15.768h5.9v1.03H33.701v-1.03h5.26v-36.955h-5.26v-1.03h16.314zm25.755 9.753h-.106l-5.155 15.227h10.363l-5.102-15.227zm-26.073-8.723h-3.243v20.157c1.17.38 2.604.705 4.518.705 4.783 0 6.695-2.276 6.695-9.862v-1.355c0-7.478-2.604-9.645-7.97-9.645zm2.113-48.174c9.088 0 18.069 8.996 18.069 21.134 0 12.409-8.981 19.723-18.069 19.723-9.14 0-18.069-7.694-18.069-20.103 0-12.138 8.929-20.754 18.07-20.754zm144.376.163c4.782 0 6.854 1.788 8.82 1.788 1.063 0 1.595-.65 1.86-1.408h.851v13.058h-.904c-2.019-8.995-5.951-12.408-10.575-12.408-5.154 0-10.15 3.468-10.15 18.749v1.517c0 15.443 5.048 18.206 9.459 18.206 4.676 0 7.28-1.842 7.28-6.231V82.2h-5.898v-.975h17.112v.975h-3.88v6.015c0 2.059.212 6.014.373 6.882h-.904c-.531-.814-1.435-1.355-2.976-1.355-2.816 0-5.262 2.763-11.107 2.763-9.087 0-17.644-7.857-17.644-19.94 0-11.868 8.822-20.646 18.283-20.646zm-177.747 0c4.518 0 6.803 1.897 8.61 1.897 1.063 0 1.647-.65 1.913-1.517h.904v12.245h-.957c-1.914-8.507-5.526-11.595-10.47-11.595-5.313 0-10.256 3.685-10.256 18.803v1.3c0 15.497 4.783 18.37 10.098 18.37 5.048 0 9.565-3.144 11.266-12.626h.956v12.625H29.6c-.212-.758-.797-1.192-1.807-1.192-1.913 0-4.463 2.276-9.511 2.276C8.502 96.506 0 88.703 0 76.674 0 64.644 8.822 55.92 18.44 55.92zm33.371.867c-6.005 0-9.885 4.93-9.885 18.803v1.788c0 14.414 4.252 18.207 9.885 18.207 5.74 0 9.885-3.793 9.885-18.207V75.59c0-13.872-3.826-18.803-9.885-18.803zm72.374-.38v1.03h-5.474v36.956h4.516c9.832 0 12.011-2.33 13.553-12.409h.956v13.439h-31.78v-1.03h5.261V57.438h-5.26v-1.03h18.228zm119.989 0v10.62h-.957c-1.382-6.555-3.508-9.59-12.648-9.59h-2.87v17.395h2.02c5.102 0 6.376-2.276 7.173-6.882h.904v14.088h-.904c-1.062-4.552-2.232-6.177-7.173-6.177h-2.02v18.532h3.72c11.266 0 13.657-3.794 14.72-11.163h.957v12.193h-32.151v-1.03h5.261V57.438h-5.261v-1.03h29.229zm-155.857 0v1.03h-5.474v36.956h4.516c9.832 0 12.011-2.33 13.553-12.409h.956v13.439h-31.78v-1.03h5.262V57.438h-5.261v-1.03h18.228zm82.736 0v10.62h-.957c-1.38-6.555-3.507-9.59-12.647-9.59h-2.87v17.395h2.02c5.1 0 6.376-2.276 7.173-6.882h.904v14.088h-.904c-1.062-4.552-2.231-6.177-7.174-6.177h-2.02v18.532h3.72c11.267 0 13.659-3.794 14.722-11.163h.955v12.193h-32.15v-1.03h5.26V57.438h-5.26v-1.03h29.228zM51.811 9.267c9.088 0 18.069 8.995 18.069 21.133 0 12.41-8.981 19.724-18.069 19.724-9.14 0-18.069-7.695-18.069-20.103 0-12.138 8.929-20.754 18.07-20.754zm229.513 0c4.729 0 6.058 1.68 8.077 1.68.957 0 1.329-.433 1.541-1.138h.904v10.675h-.957c-1.328-7.099-4.996-10.187-9.512-10.187-3.56 0-7.015 1.734-7.015 6.123 0 4.605 4.039 6.665 9.512 8.887 6.271 2.493 11.533 5.093 11.533 12.354 0 7.423-5.368 12.355-13.02 12.355-5.634 0-7.706-2.385-10.098-2.385-1.17 0-1.753.434-2.18 1.355h-.902V35.492h.957c1.222 8.291 5.58 13.493 12.222 13.493 5.368 0 8.025-2.871 8.025-7.044 0-5.148-3.773-6.99-9.566-9.429-5.314-2.221-10.681-5.147-10.681-12.029 0-7.37 5.526-11.217 11.16-11.217zM18.44 9.428c4.518 0 6.803 1.897 8.61 1.897 1.063 0 1.647-.65 1.913-1.517h.904v12.246h-.957c-1.914-8.507-5.526-11.595-10.47-11.595-5.313 0-10.256 3.684-10.256 18.802v1.301c0 15.497 4.783 18.369 10.098 18.369 5.048 0 9.565-3.143 11.266-12.626h.956v12.626H29.6c-.212-.758-.797-1.192-1.807-1.192-1.913 0-4.463 2.276-9.511 2.276C8.502 50.015 0 42.212 0 30.182 0 18.152 8.822 9.428 18.44 9.428zm65.466.488l16.74 26.877h.106V10.946h-5.527v-1.03h11.479v1.03h-4.783v38.472h-2.126L76.68 11.651h-.16V47.9h5.686v1.03H70.142V47.9h5.208V10.946h-5.208v-1.03h13.764zm125.523 0l16.74 26.877h.106V10.946h-5.527v-1.03h11.479v1.03h-4.782v38.472h-2.127l-23.116-37.767h-.16V47.9h5.686v1.03h-12.064V47.9h5.209V10.946h-5.209v-1.03h13.765zm-157.618.38c-6.005 0-9.885 4.93-9.885 18.802v1.789c0 14.413 4.252 18.206 9.885 18.206 5.74 0 9.885-3.793 9.885-18.206v-1.789c0-13.872-3.826-18.802-9.885-18.802zm124.928-.38v10.621h-.956c-1.383-6.556-3.508-9.59-12.648-9.59h-2.87V28.34h2.019c5.102 0 6.377-2.276 7.174-6.882h.903v14.088h-.903c-1.063-4.552-2.232-6.177-7.174-6.177h-2.02v18.532h3.72c11.267 0 13.658-3.793 14.72-11.163h.957v12.193h-32.15v-1.03h5.26V10.946h-5.26v-1.03h29.228zm153.261 0v12.41h-.957c-1.329-8.075-4.41-11.38-10.628-11.38h-1.329v36.956h5.58v1.029h-18.6V47.9h5.58V10.947h-1.488c-6.112 0-9.194 3.142-10.469 11.38h-.956V9.915H330zm-80.612-.867l13.02 38.853h3.614v1.029h-15.997V47.9h4.731l-4.04-11.975H239.61l-4.039 11.976h5.845v1.029h-10.575V47.9h3.455l13.233-38.85h1.86zm-123.398.868c10.789 0 20.248 7.26 20.248 20.048 0 13.005-9.565 18.966-19.715 18.966h-16.9V47.9h5.315V10.946h-5.315v-1.03h16.367zm-.158 1.03h-3.455V47.9h3.985c6.803 0 11.692-3.576 11.692-17.665V28.88c0-14.033-4.57-17.935-12.222-17.935zm119.41 8.722h-.105l-5.155 15.227h10.363l-5.102-15.227zM169.832 0c-.797 2.493-3.933 6.124-6.484 7.75h-.797c.903-1.843 1.487-5.311 1.594-7.75h5.687z"/>
</svg>
