<svg
    xmlns="http://www.w3.org/2000/svg"
    viewBox="0 0 100 100">
    <defs/>
    <g fill="none" fill-rule="evenodd" stroke="#000">
    <path d="M.5.5h99v99H.5z"/>
    <path d="M69.9 49.803a49.557 49.557 0 01-11.482 31.793 50.027 50.027 0 01-8.414 8.008c0 .002-.002.002-.004.002s-.004 0-.004-.002c-12.309-.002-23.31-5.588-30.61-14.366a39.643 39.643 0 01-9.187-25.435c0-9.672 3.45-18.54 9.186-25.435 7.302-8.778 18.302-14.364 30.61-14.366 0-.002.003-.002.005-.002s.004 0 .004.002a50.018 50.018 0 018.414 8.008 49.774 49.774 0 016.742 10.575 49.537 49.537 0 014.74 21.218z"/>
    <path d="M89.801 49.803c0 9.672-3.45 18.54-9.186 25.435-7.302 8.778-18.303 14.364-30.61 14.366 0 .002-.003.002-.005.002s-.004 0-.004-.002a50.027 50.027 0 01-8.414-8.008A49.546 49.546 0 0130.1 49.803a49.53 49.53 0 014.74-21.218 49.758 49.758 0 016.742-10.575 50.018 50.018 0 018.414-8.008c0-.002.002-.002.004-.002s.004 0 .004.002c12.308.002 23.31 5.588 30.611 14.366a39.643 39.643 0 019.186 25.435z"/>
    <path d="M80.615 24.368a85.859 85.859 0 01-15.455 4.217A87.269 87.269 0 0150 29.903a87.271 87.271 0 01-16.748-1.61 85.853 85.853 0 01-13.867-3.925c7.302-8.778 18.302-14.364 30.611-14.366h.008c12.308.002 23.31 5.588 30.611 14.366zm0 50.869C73.313 84.015 62.311 89.603 50 89.603c-12.31 0-23.313-5.588-30.615-14.366a85.873 85.873 0 0113.867-3.924A87.456 87.456 0 0150 69.703c5.73 0 11.33.553 16.748 1.61a85.879 85.879 0 0113.867 3.924zM10.199 50h79.602M50.004 10.002v79.602"/>
    </g>
</svg>
