<svg
    xmlns="http://www.w3.org/2000/svg"
    viewBox="0 0 500 128">
    <defs/>
    <path fill-rule="evenodd" d="M.218 3.545h44.006c.262 0 .174 1.297 0 1.297h-9.085s-2.54-.11-1.782 1.297c.158.287 31.094 84.84 31.094 84.84s.54 1.458.967 1.623l27.52-84.976c.288-.84 1.262-2.732-.427-2.732h-9.95c-.18 0-.18-1.298 0-1.298h23.682c.178 0 .178 1.298 0 1.298h-8.815C95.017 4.85 95 5.59 94.563 6.846c-.218.63-38.277 119.205-38.277 119.205l-.33-.966C39.867 78.54 14.893 13.802 12.915 6.895c-.586-2.07-.89-2.001-2.101-2.001H.218c-.31 0-.27-1.349 0-1.349zm1.64 8.737a3.364 3.364 0 113.362 3.364 3.363 3.363 0 01-3.362-3.364zm3.363 2.978a2.984 2.984 0 002.98-2.978 2.977 2.977 0 00-2.98-2.98 2.978 2.978 0 100 5.958zm-1.169-4.696h1.321c.792 0 1.147.328 1.147.959 0 .573-.404.851-.912.933l1.054 1.608h-.34l-1.05-1.616h-.917v1.616h-.303v-3.5zm.303 1.625h.751c.53 0 1.108-.06 1.108-.666 0-.547-.469-.7-.89-.7h-.969v1.366zm140.739 115.233c-28.065-.104-52.61-28.553-52.61-63.502C92.484 30.126 118.456.41 145.53.626c26.46.219 53.172 26.456 53.107 63.294-.066 35.173-27.867 63.594-53.544 63.502zm-30.32-64.16c0 35.678 3.084 63.16 30.806 63.182 25.816.034 30.75-29.245 30.75-63.182 0-32.773-5.078-61.65-30.969-61.658-24.077-.011-30.586 27.725-30.586 61.658zm156.56 11.806c-.37 0-.37-1.304-.06-1.304h42.759c.235 0 .235 1.365 0 1.365h-9.285s-1.364-.165-1.364.813v49.306s-.05.77-.703.328c-.377-2.877-5.235-9.818-15.534-6.618-16.855 5.215-16.565 9.02-30.222 8.497-25.2-.957-48.236-27.996-47.89-63.073.344-34.86 27.443-65.076 49.244-64.37 17.706.574 23.802 13.58 35.979 1.144.262-.267.492-.489.682-.672.546-.505.732-.145.732-.145l-.06 43.015s-.005.758-.911.439c-.448-1.77-7.647-41.198-35.177-42.593-23.182-1.171-28.515 28.38-28.204 62.316.12 12.485.6 60.034 23.637 62.634 6.231.71 28.27.463 28.27-21.64l.006-28.738c.017-.9-1.85-.704-1.85-.704h-10.048zm225.844-71.54v44.185c0 .22-.863.268-.863 0 0-.27.813-42.928-38.811-42.928H442.64c-.83 0-1.337.141-1.337.78v55.2c0 .512.524.79 1.315.79h4.961c23.585 0 21.686-23.645 21.686-23.913 0-.27.922-.218.922 0l.054 49.859c0 .224-.71.274-.71 0 0-.267-.539-24.643-22.492-24.643h-4.42c-.765 0-1.316.278-1.316.8v59.395c0 .42.508.803 1.337.808l14.257.044c42.589.109 42.015-45.582 42.015-45.8 0-.22 1.087-.22 1.087 0v47.323h-89.872c-.268 0-.247-1.304 0-1.304h8.984c.796 0 1.32-.268 1.32-.793 0-10.298.006-116.824 0-117.713-.017-.76-1.004-.81-1.32-.81h-19.884s-1.305.01-1.305.757v89.149c.05 24.926-19.12 33.052-32.9 33.286l-.017-.038c-16.227.083-45.367-2.654-45.367-38.588 0 0-.078-81.763-.11-82.892-.055-1.782-2.265-1.69-2.265-1.69l-9.52.017c-.293 0-.244-1.304 0-1.304h44.871c.24 0 .17 1.304 0 1.304l-9.54-.008s-2.952-.169-2.952 1.791l.059 94.346c0 13.794 7.816 26.014 24.824 25.724 13.252-.223 31.673-8.031 31.624-31.992-.011-1.168 0-80.217 0-89.105-.05-.699-1.408-.756-1.408-.756H382.76c-.272 0-.219-1.244.048-1.244l114.37-.036zM120.325 72.536V58.18h-1.506v-.347h7.797l-.069 4.175h-.387c0-2.458-.554-3.828-2.1-3.828h-2.054v6.699h.716c1.511 0 1.506-1.187 1.506-2.577h.376v5.623h-.376c0-1.628.005-2.703-1.523-2.703h-.7v7.312h1.213c2.352 0 3.34-.705 3.34-4.331h.385v4.674h-8.124v-.343h1.506zm15.627-3.713c0 2.594-1.774 3.909-3.138 3.964-1.362.06-2.954-1.043-2.954-1.043-.218.23-.546 1.261-.546 1.261h-.234v-5.4h.234s-.06 1.621.691 2.997c.421.765.942 1.595 2.22 1.688 3.574.262 2.507-3.227 2.139-4.128-.372-.911-3.357-3.62-4.133-4.435-.774-.817-1.959-2.498-1.107-4.51.845-2.013 2.674-1.726 2.674-1.726 1.495 0 2.069 1.305 2.566 1.305.327 0 .368-.53.42-.809h.224v4.487h-.225c-.136-2.434-1.036-4.64-2.985-4.64 0 0-1.902 0-1.902 1.265 0 1.658.772 2.531 2.218 4.022 1.442 1.481 3.838 2.972 3.838 5.702zm2.423 3.713V58.18h-1.517v-.347h4.274c2.16 0 3.886 1.038 3.886 4.106 0 2.105-2.538 4.032-5.011 3.551v7.044h1.513v.343h-4.662v-.343h1.517zm1.632-14.354v6.884c.219.207.753.19 1.212.093 1.697-.382 2.109-.731 2.109-3.612 0-2.803-.8-3.365-2.532-3.365h-.79zm29.496 14.331l-1.087-4.891h-2.658l-.704 3.128-.327 1.425s-.027.338.441.338h1.005v.345h-3.643v-.345h.969c.444 0 .562-.07.84-1.282l3.193-13.352h.305l3.286 14.634h1.507v.345h-4.633v-.345h1.506zm-1.163-5.345l-1.168-5.495-1.31 5.495h2.478zm-17.668 5.345l-1.078-4.891h-2.666l-.698 3.128-.328 1.425s-.028.338.437.338h1.009v.345h-3.651v-.345h.969c.453 0 .564-.07.84-1.282l3.204-13.352h.303l3.288 14.634h1.508v.345h-4.635v-.345h1.498zm-1.154-5.345l-1.169-5.495-1.32 5.495h2.489zm10.935-11.52h.376c.011.986-.46 1.382-1.336 1.382-.393 0-1.185-.396-1.524-.683-.259-.219-.916-.446-1.217-.412-.523.068-.37.235-.488.8l-.38.025c-.049-1.128.421-1.658 1.297-1.658.396 0 .897.202 1.229.489.269.218 1.022.74 1.328.74.409 0 .606-.118.715-.682zm.966 17.183l-5.668-13.749-.025 12.21c0 1.042.042 1.238.715 1.238h.757v.35h-3.339v-.35h.546c.664 0 .9-.196.9-1.239V58.205h-1.8v-.371h3.454l4.29 9.754V58.98c0-.54.012-.776-.502-.776h-.682v-.371h3.063v.371h-.639c-.639 0-.76.06-.76.776V72.83h-.31z"/>
</svg>
